<?xml version="1.0" encoding="utf-8"?>
<!-- Generator: Adobe Illustrator 16.0.0, SVG Export Plug-In . SVG Version: 6.00 Build 0)  -->
<!DOCTYPE svg PUBLIC "-//W3C//DTD SVG 1.1//EN" "http://www.w3.org/Graphics/SVG/1.1/DTD/svg11.dtd">
<svg version="1.1" id="Layer_1" xmlns="http://www.w3.org/2000/svg" xmlns:xlink="http://www.w3.org/1999/xlink" x="0px" y="0px"
	 width="568.166px" height="194.134px" viewBox="0 0 568.166 194.134" enable-background="new 0 0 568.166 194.134"
	 xml:space="preserve">
<g>
	<g>
		<path fill="#005C97" d="M199.353,90.574h-10.294v9.817h10.294v11.191c-2.612,1.206-6.637,2.009-11.059,2.009
			c-1.8,0-3.504-0.148-5.111-0.437c-11.134-2-17.51-10.71-17.51-23.187c0-14.071,8.451-23.92,24.428-23.92
			c7.143,0,13.073,1.807,18.295,4.418V59.209c-5.029-1.811-11.462-3.319-19.195-3.319c-22.018,0-36.393,14.777-36.393,34.882
			c0,17.739,11.217,31.093,30.375,32.787c1.366,0.122,2.768,0.187,4.208,0.187c9.245,0,18.094-2.311,24.125-5.328v-18.027v-9.817
			H199.353z"/>
		<path fill="#005C97" d="M219.065,99.015c0-14.272,7.838-25.027,21.413-25.027c13.371,0,21.113,9.648,21.113,25.429v2.813h-30.465
			c0.205,7.342,5.432,12.069,13.371,12.069c4.824,0,8.648-1.307,12.064-3.218l3.617,8.243c-5.022,3.118-10.956,4.423-16.787,4.423
			C226.003,123.746,219.065,111.883,219.065,99.015z M249.427,93.885c-0.205-5.426-2.816-10.75-9.152-10.75
			c-5.928,0-9.249,5.026-9.249,10.75H249.427z"/>
		<path fill="#005C97" d="M267.012,98.812c0-14.27,9.552-24.824,23.728-24.824c14.17,0,23.823,10.554,23.823,24.824
			c0,14.277-9.653,24.934-23.823,24.934C276.564,123.746,267.012,113.089,267.012,98.812z M302.195,98.812
			c0-8.742-3.911-15.175-11.455-15.175c-7.535,0-11.458,6.433-11.458,15.175c0,8.852,3.923,15.285,11.458,15.285
			C298.284,114.097,302.195,107.664,302.195,98.812z"/>
		<path fill="#005C97" d="M321.786,75.19h10.149l1.302,5.326c4.326-4.319,8.251-6.528,13.076-6.528c2.21,0,4.824,0.601,6.735,1.909
			l-4.227,10.151c-2.105-1.305-4.018-1.61-5.421-1.61c-3.118,0-5.73,1.308-9.652,4.727v33.576h-11.961V75.19z"/>
		<path fill="#005C97" d="M350.884,132.593c0-5.228,3.617-9.352,8.542-11.459c-2.005-1.211-3.112-3.416-3.112-5.93
			c0-2.815,1.809-6.233,5.733-8.951c-5.03-2.914-7.943-8.44-7.943-14.776c0-8.749,6.438-17.489,19.394-17.489
			c4.226,0,7.539,1.002,9.451,2.112c0.508,0.195,0.805,0.097,1.207-0.203c2.51-2.514,5.629-4.123,11.466-4.123
			c1.105,0,2.505,0.104,3.209,0.202l-2.407,8.644c-1.105-0.3-2.413-0.506-3.519-0.506c-1,0-2.511,0.206-3.523,0.809
			c2.817,3.014,4.224,7.038,4.224,11.254c0,10.658-8.142,17.599-19.702,17.599c-2.212,0-4.225-0.308-5.829-0.804
			c-0.909,1.506-1.206,2.508-1.206,3.516c0,8.543,31.257,0.603,31.257,18.396c0,8.644-8.64,15.684-25.122,15.684
			C359.03,146.566,350.884,140.834,350.884,132.593z M386.666,132.189c0-6.833-14.767-5.427-21.201-7.94
			c-1.51,1.107-3.822,3.117-3.822,6.23c0,4.726,5.021,7.644,12.964,7.644C381.842,138.123,386.666,135.706,386.666,132.189z
			 M382.249,91.979c0-4.722-3.217-8.946-8.544-8.946c-4.726,0-8.24,3.115-8.24,8.843c0,4.728,3.012,8.849,8.336,8.849
			C378.629,100.726,382.249,97.708,382.249,91.979z"/>
		<path fill="#005C97" d="M404.514,61.558c0-4.024,3.111-7.241,7.334-7.241c4.226,0,7.438,3.121,7.438,7.241
			c0,3.917-3.213,7.136-7.438,7.136C407.625,68.694,404.514,65.579,404.514,61.558z M405.819,75.19h12.059v47.551h-12.059V75.19z"/>
		<path fill="#005C97" d="M456.575,118.218c-3.417,3.113-7.744,5.528-13.672,5.528c-9.048,0-15.788-6.028-15.788-15.18
			c0-6.434,3.119-10.454,8.046-12.971c3.312-1.71,7.44-2.508,12.268-2.711l8.138-0.303v-1.51c0-5.525-3.619-7.937-9.148-7.937
			c-4.725,0-9.048,1.505-12.465,3.319l-3.914-7.742c5.623-3.121,11.759-4.724,18.389-4.724c12.767,0,19.104,5.829,19.104,17.285
			v19.301c0,5.53,0.199,9.653,0.899,12.167h-10.045L456.575,118.218z M449.132,100.828c-3.109,0.097-5.329,0.603-6.932,1.504
			c-2.01,1.106-2.923,3.016-2.923,5.43c0,4.121,2.718,6.537,7.044,6.537c4.421,0,7.64-2.219,9.245-3.521v-10.152L449.132,100.828z"
			/>
		<path fill="#005C97" d="M477.545,75.19h10.254l1.21,5.326c5.027-3.917,10.353-6.528,16.282-6.528
			c7.542,0,15.276,3.715,15.276,17.285v31.468h-12.062V94.995c0-5.83-1.202-10.557-7.334-10.557c-3.923,0-8.148,2.111-11.66,5.031
			v33.272h-11.967V75.19z"/>
	</g>
	<g>
		<path fill="#59AD40" d="M109.712,31.371c-8.315,0-15.854,3.383-21.32,8.843c-1.421,1.422-2.696,2.989-3.814,4.671
			c4.774-3.175,10.502-5.029,16.651-5.029h30.159v30.162c0,6.148-1.855,11.875-5.029,16.646c8.139-5.407,13.514-14.65,13.514-25.132
			v-30.16H109.712z"/>
		<path fill="#005C97" d="M93.551,47.534c-8.314,0-15.856,3.383-21.317,8.844c-1.391,1.388-2.639,2.912-3.74,4.542
			c4.8-3.22,10.568-5.103,16.774-5.103h30.16v30.158c0,6.202-1.883,11.975-5.11,16.773c8.073-5.419,13.393-14.627,13.393-25.053
			V47.534H93.551z"/>
		<path fill="#59AD40" d="M107.755,63.489v30.166c0,16.659-13.505,30.163-30.161,30.163H47.43V93.655
			c0-16.658,13.505-30.166,30.165-30.166H107.755z M67.875,114.989c1.912-1.002,2.495-2.221,2.495-5.22v-8.893h-8.892
			c-3.471,0-5.243,0.695-6.318,2.485l-0.192,0.32h12.596v11.471L67.875,114.989z M80.512,117.579
			c2.269-1.276,2.854-2.335,2.974-5.399V87.762H59.618c-3.876,0-5.011,1.269-6.09,2.924l-0.212,0.33h26.882v26.742L80.512,117.579z
			 M93.638,109.519c2.295-1.542,2.895-2.271,3.053-5.413V74.579H67.025c-3.761,0-5.402,1.727-6.308,3.026l-0.233,0.333l32.826-0.006
			v31.809L93.638,109.519z"/>
	</g>
</g>
</svg>
